<mxfile host="app.diagrams.net" modified="2024-01-16T12:29:57.030Z" agent="Mozilla/5.0 (Macintosh; Intel Mac OS X 10_15_7) AppleWebKit/537.36 (KHTML, like Gecko) Chrome/120.0.0.0 Safari/537.36" etag="_NizBJGXPKGZG3gqlg0d" version="22.1.18" type="github">
  <diagram name="第 1 页" id="rRuHSntvBdOZGcXTq8w7">
    <mxGraphModel dx="1242" dy="786" grid="1" gridSize="10" guides="1" tooltips="1" connect="1" arrows="1" fold="1" page="1" pageScale="1" pageWidth="1169" pageHeight="827" math="0" shadow="0">
      <root>
        <mxCell id="0" />
        <mxCell id="1" parent="0" />
        <mxCell id="2GG4-1aaM5nx4AEca9Iq-1" style="edgeStyle=orthogonalEdgeStyle;curved=1;rounded=0;orthogonalLoop=1;jettySize=auto;html=1;entryX=0.5;entryY=1;entryDx=0;entryDy=0;endArrow=none;endFill=0;dashed=1;exitX=0.5;exitY=0;exitDx=0;exitDy=0;" edge="1" parent="1" source="2GG4-1aaM5nx4AEca9Iq-7" target="2GG4-1aaM5nx4AEca9Iq-19">
          <mxGeometry relative="1" as="geometry">
            <Array as="points">
              <mxPoint x="260" y="260" />
            </Array>
          </mxGeometry>
        </mxCell>
        <mxCell id="2GG4-1aaM5nx4AEca9Iq-2" style="edgeStyle=orthogonalEdgeStyle;curved=1;rounded=0;orthogonalLoop=1;jettySize=auto;html=1;exitX=0.75;exitY=0;exitDx=0;exitDy=0;endArrow=none;endFill=0;dashed=1;" edge="1" parent="1" source="2GG4-1aaM5nx4AEca9Iq-7" target="2GG4-1aaM5nx4AEca9Iq-20">
          <mxGeometry relative="1" as="geometry">
            <Array as="points">
              <mxPoint x="340" y="320" />
            </Array>
          </mxGeometry>
        </mxCell>
        <mxCell id="2GG4-1aaM5nx4AEca9Iq-3" style="edgeStyle=orthogonalEdgeStyle;curved=1;rounded=0;orthogonalLoop=1;jettySize=auto;html=1;dashed=1;endArrow=none;endFill=0;entryX=0.425;entryY=0;entryDx=0;entryDy=0;entryPerimeter=0;" edge="1" parent="1" source="2GG4-1aaM5nx4AEca9Iq-7" target="2GG4-1aaM5nx4AEca9Iq-12">
          <mxGeometry relative="1" as="geometry">
            <Array as="points">
              <mxPoint x="260" y="480" />
            </Array>
          </mxGeometry>
        </mxCell>
        <mxCell id="2GG4-1aaM5nx4AEca9Iq-4" style="edgeStyle=orthogonalEdgeStyle;curved=1;rounded=0;orthogonalLoop=1;jettySize=auto;html=1;dashed=1;endArrow=none;endFill=0;" edge="1" parent="1" source="2GG4-1aaM5nx4AEca9Iq-7" target="2GG4-1aaM5nx4AEca9Iq-9">
          <mxGeometry relative="1" as="geometry">
            <Array as="points">
              <mxPoint x="60" y="350" />
            </Array>
          </mxGeometry>
        </mxCell>
        <mxCell id="2GG4-1aaM5nx4AEca9Iq-5" style="edgeStyle=orthogonalEdgeStyle;rounded=0;orthogonalLoop=1;jettySize=auto;html=1;entryX=0;entryY=0.5;entryDx=0;entryDy=0;curved=1;exitX=0;exitY=0.5;exitDx=0;exitDy=0;dashed=1;endArrow=none;endFill=0;" edge="1" parent="1" source="2GG4-1aaM5nx4AEca9Iq-7" target="2GG4-1aaM5nx4AEca9Iq-28">
          <mxGeometry relative="1" as="geometry">
            <mxPoint x="170" y="380" as="sourcePoint" />
            <Array as="points">
              <mxPoint x="80" y="350" />
              <mxPoint x="80" y="750" />
            </Array>
          </mxGeometry>
        </mxCell>
        <mxCell id="2GG4-1aaM5nx4AEca9Iq-6" style="edgeStyle=orthogonalEdgeStyle;curved=1;rounded=0;orthogonalLoop=1;jettySize=auto;html=1;entryX=0;entryY=1;entryDx=0;entryDy=0;dashed=1;endArrow=none;endFill=0;exitX=1;exitY=0.25;exitDx=0;exitDy=0;" edge="1" parent="1" source="2GG4-1aaM5nx4AEca9Iq-7" target="2GG4-1aaM5nx4AEca9Iq-44">
          <mxGeometry relative="1" as="geometry">
            <Array as="points">
              <mxPoint x="359" y="335" />
            </Array>
          </mxGeometry>
        </mxCell>
        <mxCell id="2GG4-1aaM5nx4AEca9Iq-7" value="丽江&lt;br&gt;2416m" style="rounded=1;whiteSpace=wrap;html=1;arcSize=48;fontSize=15;fontStyle=0;fillColor=#fff2cc;strokeColor=#d6b656;" vertex="1" parent="1">
          <mxGeometry x="200" y="320" width="120" height="60" as="geometry" />
        </mxCell>
        <mxCell id="2GG4-1aaM5nx4AEca9Iq-8" style="edgeStyle=orthogonalEdgeStyle;rounded=0;orthogonalLoop=1;jettySize=auto;html=1;exitX=0.75;exitY=0;exitDx=0;exitDy=0;curved=1;entryX=0;entryY=0.5;entryDx=0;entryDy=0;dashed=1;endArrow=none;endFill=0;" edge="1" parent="1" source="2GG4-1aaM5nx4AEca9Iq-9" target="2GG4-1aaM5nx4AEca9Iq-31">
          <mxGeometry relative="1" as="geometry" />
        </mxCell>
        <mxCell id="2GG4-1aaM5nx4AEca9Iq-9" value="香格里拉&lt;br&gt;3300m" style="rounded=1;whiteSpace=wrap;html=1;arcSize=48;fontSize=15;fontStyle=0;fillColor=#fff2cc;strokeColor=#d6b656;dashed=1;" vertex="1" parent="1">
          <mxGeometry y="120" width="120" height="60" as="geometry" />
        </mxCell>
        <mxCell id="2GG4-1aaM5nx4AEca9Iq-10" style="edgeStyle=orthogonalEdgeStyle;rounded=0;orthogonalLoop=1;jettySize=auto;html=1;curved=1;exitX=0.5;exitY=1;exitDx=0;exitDy=0;entryX=0.5;entryY=0;entryDx=0;entryDy=0;endArrow=none;endFill=0;dashed=1;" edge="1" parent="1" source="2GG4-1aaM5nx4AEca9Iq-12" target="2GG4-1aaM5nx4AEca9Iq-28">
          <mxGeometry relative="1" as="geometry">
            <Array as="points">
              <mxPoint x="270" y="720" />
            </Array>
          </mxGeometry>
        </mxCell>
        <mxCell id="2GG4-1aaM5nx4AEca9Iq-11" style="edgeStyle=orthogonalEdgeStyle;rounded=0;orthogonalLoop=1;jettySize=auto;html=1;entryX=1.017;entryY=0.75;entryDx=0;entryDy=0;entryPerimeter=0;curved=1;dashed=1;endArrow=none;endFill=0;exitX=1;exitY=0.5;exitDx=0;exitDy=0;" edge="1" parent="1" source="2GG4-1aaM5nx4AEca9Iq-12" target="2GG4-1aaM5nx4AEca9Iq-20">
          <mxGeometry relative="1" as="geometry">
            <Array as="points">
              <mxPoint x="480" y="540" />
              <mxPoint x="480" y="165" />
            </Array>
          </mxGeometry>
        </mxCell>
        <mxCell id="2GG4-1aaM5nx4AEca9Iq-12" value="大理&lt;br&gt;2052m" style="rounded=1;whiteSpace=wrap;html=1;arcSize=48;fontSize=15;fontStyle=0;fillColor=#fff2cc;strokeColor=#d6b656;" vertex="1" parent="1">
          <mxGeometry x="210" y="510" width="120" height="60" as="geometry" />
        </mxCell>
        <mxCell id="2GG4-1aaM5nx4AEca9Iq-13" style="edgeStyle=orthogonalEdgeStyle;rounded=0;orthogonalLoop=1;jettySize=auto;html=1;curved=1;endArrow=none;endFill=0;dashed=1;entryX=0.75;entryY=1;entryDx=0;entryDy=0;" edge="1" parent="1" source="2GG4-1aaM5nx4AEca9Iq-17" target="2GG4-1aaM5nx4AEca9Iq-12">
          <mxGeometry relative="1" as="geometry" />
        </mxCell>
        <mxCell id="2GG4-1aaM5nx4AEca9Iq-14" style="edgeStyle=orthogonalEdgeStyle;curved=1;rounded=0;orthogonalLoop=1;jettySize=auto;html=1;entryX=1;entryY=0.5;entryDx=0;entryDy=0;dashed=1;endArrow=none;endFill=0;" edge="1" parent="1" source="2GG4-1aaM5nx4AEca9Iq-17" target="2GG4-1aaM5nx4AEca9Iq-7">
          <mxGeometry relative="1" as="geometry">
            <Array as="points">
              <mxPoint x="570" y="350" />
            </Array>
          </mxGeometry>
        </mxCell>
        <mxCell id="2GG4-1aaM5nx4AEca9Iq-15" style="edgeStyle=orthogonalEdgeStyle;curved=1;rounded=0;orthogonalLoop=1;jettySize=auto;html=1;entryX=1;entryY=0.5;entryDx=0;entryDy=0;dashed=1;endArrow=none;endFill=0;" edge="1" parent="1" source="2GG4-1aaM5nx4AEca9Iq-17" target="2GG4-1aaM5nx4AEca9Iq-20">
          <mxGeometry relative="1" as="geometry">
            <Array as="points">
              <mxPoint x="600" y="150" />
            </Array>
          </mxGeometry>
        </mxCell>
        <mxCell id="2GG4-1aaM5nx4AEca9Iq-16" style="edgeStyle=orthogonalEdgeStyle;curved=1;rounded=0;orthogonalLoop=1;jettySize=auto;html=1;entryX=1;entryY=0.25;entryDx=0;entryDy=0;dashed=1;endArrow=none;endFill=0;exitX=0.5;exitY=1;exitDx=0;exitDy=0;" edge="1" parent="1" source="2GG4-1aaM5nx4AEca9Iq-17" target="2GG4-1aaM5nx4AEca9Iq-28">
          <mxGeometry relative="1" as="geometry">
            <Array as="points">
              <mxPoint x="580" y="735" />
            </Array>
          </mxGeometry>
        </mxCell>
        <mxCell id="2GG4-1aaM5nx4AEca9Iq-17" value="昆明&lt;br&gt;1891m" style="rounded=1;whiteSpace=wrap;html=1;arcSize=48;fontSize=15;fillColor=#f5f5f5;strokeColor=#666666;fontStyle=0;" vertex="1" parent="1">
          <mxGeometry x="520" y="560" width="120" height="60" as="geometry" />
        </mxCell>
        <mxCell id="2GG4-1aaM5nx4AEca9Iq-18" style="edgeStyle=orthogonalEdgeStyle;rounded=0;orthogonalLoop=1;jettySize=auto;html=1;entryX=0;entryY=0.5;entryDx=0;entryDy=0;curved=1;dashed=1;endArrow=none;endFill=0;" edge="1" parent="1" source="2GG4-1aaM5nx4AEca9Iq-19" target="2GG4-1aaM5nx4AEca9Iq-20">
          <mxGeometry relative="1" as="geometry" />
        </mxCell>
        <mxCell id="2GG4-1aaM5nx4AEca9Iq-19" value="玉龙&lt;br style=&quot;font-size: 15px;&quot;&gt;雪山" style="ellipse;whiteSpace=wrap;html=1;aspect=fixed;fontSize=15;" vertex="1" parent="1">
          <mxGeometry x="250" y="190" width="60" height="60" as="geometry" />
        </mxCell>
        <mxCell id="2GG4-1aaM5nx4AEca9Iq-20" value="&lt;span style=&quot;font-weight: normal&quot;&gt;泸沽湖&lt;br style=&quot;font-size: 15px&quot;&gt;&lt;span style=&quot;font-family: &amp;quot;helvetica neue&amp;quot; , &amp;quot;helvetica&amp;quot; , &amp;quot;arial&amp;quot; , &amp;quot;pingfang sc&amp;quot; , &amp;quot;hiragino sans gb&amp;quot; , &amp;quot;microsoft yahei&amp;quot; , &amp;quot;wenquanyi micro hei&amp;quot; , sans-serif&quot;&gt;&lt;font style=&quot;font-size: 14px;&quot;&gt;2690m&lt;/font&gt;&lt;/span&gt;&lt;/span&gt;" style="ellipse;whiteSpace=wrap;html=1;aspect=fixed;fontSize=15;fontStyle=1;fillColor=#fff2cc;strokeColor=#d6b656;" vertex="1" parent="1">
          <mxGeometry x="310" y="120" width="60" height="60" as="geometry" />
        </mxCell>
        <mxCell id="2GG4-1aaM5nx4AEca9Iq-21" value="30公里&lt;br&gt;0.7小时" style="text;html=1;align=center;verticalAlign=middle;resizable=0;points=[];autosize=1;" vertex="1" parent="1">
          <mxGeometry x="255" y="270" width="60" height="40" as="geometry" />
        </mxCell>
        <mxCell id="2GG4-1aaM5nx4AEca9Iq-22" value="200~240公里&lt;br&gt;3.3~3.5小时" style="text;html=1;align=center;verticalAlign=middle;resizable=0;points=[];autosize=1;" vertex="1" parent="1">
          <mxGeometry x="335" y="205" width="90" height="30" as="geometry" />
        </mxCell>
        <mxCell id="2GG4-1aaM5nx4AEca9Iq-23" value="350公里&lt;br&gt;4.5 小时" style="text;html=1;align=center;verticalAlign=middle;resizable=0;points=[];autosize=1;" vertex="1" parent="1">
          <mxGeometry x="325" y="595" width="70" height="40" as="geometry" />
        </mxCell>
        <mxCell id="2GG4-1aaM5nx4AEca9Iq-24" value="170公里&lt;br&gt;2.25小时" style="text;html=1;align=center;verticalAlign=middle;resizable=0;points=[];autosize=1;" vertex="1" parent="1">
          <mxGeometry x="200" y="430" width="60" height="30" as="geometry" />
        </mxCell>
        <mxCell id="2GG4-1aaM5nx4AEca9Iq-25" value="170公里&lt;br&gt;2.25 小时" style="text;html=1;align=center;verticalAlign=middle;resizable=0;points=[];autosize=1;" vertex="1" parent="1">
          <mxGeometry x="5" y="285" width="70" height="40" as="geometry" />
        </mxCell>
        <mxCell id="2GG4-1aaM5nx4AEca9Iq-26" value="500公里&lt;br&gt;5.5小时" style="text;html=1;align=center;verticalAlign=middle;resizable=0;points=[];autosize=1;" vertex="1" parent="1">
          <mxGeometry x="500" y="500" width="60" height="30" as="geometry" />
        </mxCell>
        <mxCell id="2GG4-1aaM5nx4AEca9Iq-27" value="600公里&lt;br&gt;7小时" style="text;html=1;align=center;verticalAlign=middle;resizable=0;points=[];autosize=1;" vertex="1" parent="1">
          <mxGeometry x="500" y="348" width="60" height="30" as="geometry" />
        </mxCell>
        <mxCell id="2GG4-1aaM5nx4AEca9Iq-28" value="西双版纳&lt;br&gt;1450m" style="rounded=1;whiteSpace=wrap;html=1;arcSize=48;fontSize=15;fillColor=#f5f5f5;strokeColor=#666666;fontStyle=0;" vertex="1" parent="1">
          <mxGeometry x="260" y="720" width="120" height="60" as="geometry" />
        </mxCell>
        <mxCell id="2GG4-1aaM5nx4AEca9Iq-29" value="600公里&lt;br&gt;8小时" style="text;html=1;align=center;verticalAlign=middle;resizable=0;points=[];autosize=1;" vertex="1" parent="1">
          <mxGeometry x="220" y="645" width="60" height="30" as="geometry" />
        </mxCell>
        <mxCell id="2GG4-1aaM5nx4AEca9Iq-30" value="500公里&lt;br&gt;7小时" style="text;html=1;align=center;verticalAlign=middle;resizable=0;points=[];autosize=1;" vertex="1" parent="1">
          <mxGeometry x="560" y="690" width="60" height="30" as="geometry" />
        </mxCell>
        <mxCell id="2GG4-1aaM5nx4AEca9Iq-31" value="噶丹松&lt;br style=&quot;font-size: 13px;&quot;&gt;赞林寺&lt;br style=&quot;font-size: 13px;&quot;&gt;3380m" style="ellipse;whiteSpace=wrap;html=1;aspect=fixed;fontSize=13;" vertex="1" parent="1">
          <mxGeometry x="120" y="60" width="60" height="60" as="geometry" />
        </mxCell>
        <mxCell id="2GG4-1aaM5nx4AEca9Iq-32" style="edgeStyle=orthogonalEdgeStyle;curved=1;rounded=0;orthogonalLoop=1;jettySize=auto;html=1;dashed=1;endArrow=none;endFill=0;" edge="1" parent="1" source="2GG4-1aaM5nx4AEca9Iq-33" target="2GG4-1aaM5nx4AEca9Iq-9">
          <mxGeometry relative="1" as="geometry" />
        </mxCell>
        <mxCell id="2GG4-1aaM5nx4AEca9Iq-33" value="独立宗&lt;br style=&quot;font-size: 15px;&quot;&gt;古城" style="ellipse;whiteSpace=wrap;html=1;aspect=fixed;fontSize=15;" vertex="1" parent="1">
          <mxGeometry x="30" y="30" width="60" height="60" as="geometry" />
        </mxCell>
        <mxCell id="2GG4-1aaM5nx4AEca9Iq-34" value="城内" style="text;html=1;align=center;verticalAlign=middle;resizable=0;points=[];autosize=1;" vertex="1" parent="1">
          <mxGeometry x="10" y="90" width="40" height="20" as="geometry" />
        </mxCell>
        <mxCell id="2GG4-1aaM5nx4AEca9Iq-35" style="edgeStyle=orthogonalEdgeStyle;curved=1;rounded=0;orthogonalLoop=1;jettySize=auto;html=1;entryX=0;entryY=0.25;entryDx=0;entryDy=0;dashed=1;endArrow=none;endFill=0;exitX=1;exitY=0.5;exitDx=0;exitDy=0;" edge="1" parent="1" source="2GG4-1aaM5nx4AEca9Iq-36" target="2GG4-1aaM5nx4AEca9Iq-12">
          <mxGeometry relative="1" as="geometry">
            <Array as="points">
              <mxPoint x="210" y="510" />
            </Array>
          </mxGeometry>
        </mxCell>
        <mxCell id="2GG4-1aaM5nx4AEca9Iq-36" value="苍山" style="ellipse;whiteSpace=wrap;html=1;aspect=fixed;fontSize=15;" vertex="1" parent="1">
          <mxGeometry x="120" y="480" width="60" height="60" as="geometry" />
        </mxCell>
        <mxCell id="2GG4-1aaM5nx4AEca9Iq-37" style="edgeStyle=orthogonalEdgeStyle;curved=1;rounded=0;orthogonalLoop=1;jettySize=auto;html=1;dashed=1;endArrow=none;endFill=0;exitX=1;exitY=0.5;exitDx=0;exitDy=0;entryX=0.25;entryY=1;entryDx=0;entryDy=0;" edge="1" parent="1" source="2GG4-1aaM5nx4AEca9Iq-38" target="2GG4-1aaM5nx4AEca9Iq-12">
          <mxGeometry relative="1" as="geometry">
            <Array as="points">
              <mxPoint x="210" y="590" />
              <mxPoint x="210" y="570" />
            </Array>
          </mxGeometry>
        </mxCell>
        <mxCell id="2GG4-1aaM5nx4AEca9Iq-38" value="洱海" style="ellipse;whiteSpace=wrap;html=1;aspect=fixed;fontSize=15;" vertex="1" parent="1">
          <mxGeometry x="125" y="560" width="60" height="60" as="geometry" />
        </mxCell>
        <mxCell id="2GG4-1aaM5nx4AEca9Iq-39" value="900公里&lt;br&gt;9.5小时" style="text;html=1;align=center;verticalAlign=middle;resizable=0;points=[];autosize=1;" vertex="1" parent="1">
          <mxGeometry x="5" y="505" width="70" height="40" as="geometry" />
        </mxCell>
        <mxCell id="2GG4-1aaM5nx4AEca9Iq-40" style="edgeStyle=orthogonalEdgeStyle;rounded=0;orthogonalLoop=1;jettySize=auto;html=1;entryX=0.25;entryY=0;entryDx=0;entryDy=0;curved=1;dashed=1;endArrow=none;endFill=0;exitX=1;exitY=1;exitDx=0;exitDy=0;" edge="1" parent="1" source="2GG4-1aaM5nx4AEca9Iq-41" target="2GG4-1aaM5nx4AEca9Iq-7">
          <mxGeometry relative="1" as="geometry">
            <Array as="points">
              <mxPoint x="241" y="310" />
              <mxPoint x="230" y="310" />
            </Array>
          </mxGeometry>
        </mxCell>
        <mxCell id="2GG4-1aaM5nx4AEca9Iq-41" value="束河&lt;br style=&quot;font-size: 15px;&quot;&gt;古镇" style="ellipse;whiteSpace=wrap;html=1;aspect=fixed;fontSize=15;" vertex="1" parent="1">
          <mxGeometry x="190" y="225" width="60" height="60" as="geometry" />
        </mxCell>
        <mxCell id="2GG4-1aaM5nx4AEca9Iq-42" style="edgeStyle=orthogonalEdgeStyle;curved=1;rounded=0;orthogonalLoop=1;jettySize=auto;html=1;entryX=0.675;entryY=1.008;entryDx=0;entryDy=0;entryPerimeter=0;dashed=1;endArrow=none;endFill=0;" edge="1" parent="1" source="2GG4-1aaM5nx4AEca9Iq-43" target="2GG4-1aaM5nx4AEca9Iq-7">
          <mxGeometry relative="1" as="geometry">
            <Array as="points">
              <mxPoint x="290" y="410" />
              <mxPoint x="290" y="410" />
            </Array>
          </mxGeometry>
        </mxCell>
        <mxCell id="2GG4-1aaM5nx4AEca9Iq-43" value="大研&lt;br style=&quot;font-size: 15px;&quot;&gt;古镇" style="ellipse;whiteSpace=wrap;html=1;aspect=fixed;fontSize=15;" vertex="1" parent="1">
          <mxGeometry x="290" y="399" width="60" height="60" as="geometry" />
        </mxCell>
        <mxCell id="2GG4-1aaM5nx4AEca9Iq-44" value="白沙&lt;br style=&quot;font-size: 15px;&quot;&gt;古镇" style="ellipse;whiteSpace=wrap;html=1;aspect=fixed;fontSize=15;" vertex="1" parent="1">
          <mxGeometry x="350" y="260" width="60" height="60" as="geometry" />
        </mxCell>
        <mxCell id="2GG4-1aaM5nx4AEca9Iq-45" value="7公里" style="text;html=1;align=center;verticalAlign=middle;resizable=0;points=[];autosize=1;" vertex="1" parent="1">
          <mxGeometry x="199" y="285" width="50" height="20" as="geometry" />
        </mxCell>
        <mxCell id="2GG4-1aaM5nx4AEca9Iq-46" value="城中" style="text;html=1;align=center;verticalAlign=middle;resizable=0;points=[];autosize=1;" vertex="1" parent="1">
          <mxGeometry x="290" y="380" width="40" height="20" as="geometry" />
        </mxCell>
        <mxCell id="2GG4-1aaM5nx4AEca9Iq-47" value="13.5公里&lt;br&gt;丽江到玉龙路上" style="text;html=1;align=center;verticalAlign=middle;resizable=0;points=[];autosize=1;" vertex="1" parent="1">
          <mxGeometry x="370" y="315" width="100" height="30" as="geometry" />
        </mxCell>
        <mxCell id="2GG4-1aaM5nx4AEca9Iq-48" value="300公里&lt;br&gt;3.5小时" style="text;html=1;align=center;verticalAlign=middle;resizable=0;points=[];autosize=1;" vertex="1" parent="1">
          <mxGeometry x="400" y="430" width="60" height="30" as="geometry" />
        </mxCell>
        <mxCell id="2GG4-1aaM5nx4AEca9Iq-49" style="edgeStyle=orthogonalEdgeStyle;rounded=0;orthogonalLoop=1;jettySize=auto;html=1;exitX=1;exitY=1;exitDx=0;exitDy=0;endArrow=none;endFill=0;curved=1;entryX=0;entryY=0.25;entryDx=0;entryDy=0;dashed=1;" edge="1" parent="1" source="2GG4-1aaM5nx4AEca9Iq-51" target="2GG4-1aaM5nx4AEca9Iq-7">
          <mxGeometry relative="1" as="geometry" />
        </mxCell>
        <mxCell id="2GG4-1aaM5nx4AEca9Iq-50" style="edgeStyle=orthogonalEdgeStyle;curved=1;rounded=0;orthogonalLoop=1;jettySize=auto;html=1;exitX=0.5;exitY=0;exitDx=0;exitDy=0;entryX=0;entryY=0;entryDx=0;entryDy=0;dashed=1;endArrow=none;endFill=0;" edge="1" parent="1" source="2GG4-1aaM5nx4AEca9Iq-51" target="2GG4-1aaM5nx4AEca9Iq-19">
          <mxGeometry relative="1" as="geometry">
            <Array as="points">
              <mxPoint x="155" y="199" />
            </Array>
          </mxGeometry>
        </mxCell>
        <mxCell id="2GG4-1aaM5nx4AEca9Iq-51" value="文海" style="ellipse;whiteSpace=wrap;html=1;aspect=fixed;fontSize=15;" vertex="1" parent="1">
          <mxGeometry x="125" y="260" width="60" height="60" as="geometry" />
        </mxCell>
        <mxCell id="2GG4-1aaM5nx4AEca9Iq-52" style="edgeStyle=orthogonalEdgeStyle;rounded=0;orthogonalLoop=1;jettySize=auto;html=1;entryX=0.25;entryY=1;entryDx=0;entryDy=0;dashed=1;curved=1;endArrow=none;endFill=0;" edge="1" parent="1" source="2GG4-1aaM5nx4AEca9Iq-53" target="2GG4-1aaM5nx4AEca9Iq-7">
          <mxGeometry relative="1" as="geometry">
            <Array as="points">
              <mxPoint x="230" y="410" />
            </Array>
          </mxGeometry>
        </mxCell>
        <mxCell id="2GG4-1aaM5nx4AEca9Iq-53" value="丽江&lt;br style=&quot;font-size: 15px;&quot;&gt;千古情" style="ellipse;whiteSpace=wrap;html=1;aspect=fixed;fontSize=15;" vertex="1" parent="1">
          <mxGeometry x="130" y="380" width="60" height="60" as="geometry" />
        </mxCell>
        <mxCell id="2GG4-1aaM5nx4AEca9Iq-54" value="6公里&lt;br&gt;城外" style="text;html=1;align=center;verticalAlign=middle;resizable=0;points=[];autosize=1;" vertex="1" parent="1">
          <mxGeometry x="180" y="378" width="50" height="30" as="geometry" />
        </mxCell>
        <mxCell id="2GG4-1aaM5nx4AEca9Iq-55" value="220~280公里&lt;br&gt;4小时" style="text;html=1;align=center;verticalAlign=middle;resizable=0;points=[];autosize=1;" vertex="1" parent="1">
          <mxGeometry x="210" y="135" width="90" height="30" as="geometry" />
        </mxCell>
        <mxCell id="2GG4-1aaM5nx4AEca9Iq-56" value="20日 下午" style="rounded=1;whiteSpace=wrap;html=1;fillColor=#fff2cc;fontSize=14;strokeColor=#d6b656;" vertex="1" parent="1">
          <mxGeometry x="1000" y="160" width="80" height="40" as="geometry" />
        </mxCell>
        <mxCell id="2GG4-1aaM5nx4AEca9Iq-57" value="22日 上午" style="rounded=1;whiteSpace=wrap;html=1;fillColor=#fff2cc;fontSize=14;strokeColor=#d6b656;" vertex="1" parent="1">
          <mxGeometry x="1000" y="200" width="80" height="40" as="geometry" />
        </mxCell>
        <mxCell id="2GG4-1aaM5nx4AEca9Iq-58" value="第 1 站" style="rounded=1;whiteSpace=wrap;html=1;fillColor=#fff2cc;fontSize=14;strokeColor=#d6b656;" vertex="1" parent="1">
          <mxGeometry x="920" y="160" width="80" height="40" as="geometry" />
        </mxCell>
        <mxCell id="2GG4-1aaM5nx4AEca9Iq-59" style="edgeStyle=orthogonalEdgeStyle;curved=1;rounded=0;orthogonalLoop=1;jettySize=auto;html=1;exitX=0;exitY=0.75;exitDx=0;exitDy=0;entryX=0;entryY=0.25;entryDx=0;entryDy=0;fontSize=14;" edge="1" parent="1" source="2GG4-1aaM5nx4AEca9Iq-61" target="2GG4-1aaM5nx4AEca9Iq-67">
          <mxGeometry relative="1" as="geometry">
            <Array as="points">
              <mxPoint x="840" y="230" />
              <mxPoint x="840" y="450" />
            </Array>
          </mxGeometry>
        </mxCell>
        <mxCell id="2GG4-1aaM5nx4AEca9Iq-60" value="3.5 小时 到酒店" style="edgeLabel;html=1;align=center;verticalAlign=middle;resizable=0;points=[];fontSize=15;fontColor=#000000;" vertex="1" connectable="0" parent="2GG4-1aaM5nx4AEca9Iq-59">
          <mxGeometry x="-0.0308" relative="1" as="geometry">
            <mxPoint x="60" y="-9" as="offset" />
          </mxGeometry>
        </mxCell>
        <mxCell id="2GG4-1aaM5nx4AEca9Iq-61" value="泸沽湖" style="rounded=1;whiteSpace=wrap;html=1;fillColor=#fff2cc;fontSize=14;strokeColor=#d6b656;" vertex="1" parent="1">
          <mxGeometry x="920" y="200" width="80" height="40" as="geometry" />
        </mxCell>
        <mxCell id="2GG4-1aaM5nx4AEca9Iq-62" value="22日 下午" style="rounded=1;whiteSpace=wrap;html=1;fillColor=#fff2cc;fontSize=14;strokeColor=#d6b656;" vertex="1" parent="1">
          <mxGeometry x="1000" y="400" width="80" height="40" as="geometry" />
        </mxCell>
        <mxCell id="2GG4-1aaM5nx4AEca9Iq-63" value="26日 上午" style="rounded=1;whiteSpace=wrap;html=1;fillColor=#fff2cc;fontSize=14;strokeColor=#d6b656;" vertex="1" parent="1">
          <mxGeometry x="1000" y="440" width="80" height="40" as="geometry" />
        </mxCell>
        <mxCell id="2GG4-1aaM5nx4AEca9Iq-64" value="第 2 站" style="rounded=1;whiteSpace=wrap;html=1;fillColor=#fff2cc;fontSize=14;strokeColor=#d6b656;" vertex="1" parent="1">
          <mxGeometry x="920" y="400" width="80" height="40" as="geometry" />
        </mxCell>
        <mxCell id="2GG4-1aaM5nx4AEca9Iq-65" style="edgeStyle=orthogonalEdgeStyle;curved=1;rounded=0;orthogonalLoop=1;jettySize=auto;html=1;exitX=0;exitY=0.75;exitDx=0;exitDy=0;entryX=0;entryY=0.25;entryDx=0;entryDy=0;fontSize=14;" edge="1" parent="1" source="2GG4-1aaM5nx4AEca9Iq-67" target="2GG4-1aaM5nx4AEca9Iq-72">
          <mxGeometry relative="1" as="geometry">
            <Array as="points">
              <mxPoint x="840" y="470" />
              <mxPoint x="840" y="690" />
            </Array>
          </mxGeometry>
        </mxCell>
        <mxCell id="2GG4-1aaM5nx4AEca9Iq-66" value="1.6 小时到 大理双廊" style="edgeLabel;html=1;align=center;verticalAlign=middle;resizable=0;points=[];fontSize=15;fontColor=#000000;" vertex="1" connectable="0" parent="2GG4-1aaM5nx4AEca9Iq-65">
          <mxGeometry x="0.0154" y="3" relative="1" as="geometry">
            <mxPoint x="77" y="-13" as="offset" />
          </mxGeometry>
        </mxCell>
        <mxCell id="2GG4-1aaM5nx4AEca9Iq-84" style="edgeStyle=orthogonalEdgeStyle;rounded=0;orthogonalLoop=1;jettySize=auto;html=1;entryX=0;entryY=0.5;entryDx=0;entryDy=0;curved=1;exitX=0.5;exitY=1;exitDx=0;exitDy=0;startArrow=classic;startFill=1;dashed=1;" edge="1" parent="1" source="2GG4-1aaM5nx4AEca9Iq-67" target="2GG4-1aaM5nx4AEca9Iq-83">
          <mxGeometry relative="1" as="geometry" />
        </mxCell>
        <mxCell id="2GG4-1aaM5nx4AEca9Iq-86" value="当日往返&lt;br&gt;单程 2小时" style="edgeLabel;html=1;align=center;verticalAlign=middle;resizable=0;points=[];fontSize=15;" vertex="1" connectable="0" parent="2GG4-1aaM5nx4AEca9Iq-84">
          <mxGeometry x="0.08" y="7" relative="1" as="geometry">
            <mxPoint x="-1" y="7" as="offset" />
          </mxGeometry>
        </mxCell>
        <mxCell id="2GG4-1aaM5nx4AEca9Iq-67" value="丽江" style="rounded=1;whiteSpace=wrap;html=1;fillColor=#fff2cc;fontSize=14;strokeColor=#d6b656;" vertex="1" parent="1">
          <mxGeometry x="920" y="440" width="80" height="40" as="geometry" />
        </mxCell>
        <mxCell id="2GG4-1aaM5nx4AEca9Iq-68" value="26日 下午" style="rounded=1;whiteSpace=wrap;html=1;fillColor=#fff2cc;fontSize=14;strokeColor=#d6b656;" vertex="1" parent="1">
          <mxGeometry x="1000" y="640" width="80" height="40" as="geometry" />
        </mxCell>
        <mxCell id="2GG4-1aaM5nx4AEca9Iq-69" value="29日 上午" style="rounded=1;whiteSpace=wrap;html=1;fillColor=#fff2cc;fontSize=14;strokeColor=#d6b656;" vertex="1" parent="1">
          <mxGeometry x="1000" y="680" width="80" height="40" as="geometry" />
        </mxCell>
        <mxCell id="2GG4-1aaM5nx4AEca9Iq-70" value="第 3 站" style="rounded=1;whiteSpace=wrap;html=1;fillColor=#fff2cc;fontSize=14;strokeColor=#d6b656;" vertex="1" parent="1">
          <mxGeometry x="920" y="640" width="80" height="40" as="geometry" />
        </mxCell>
        <mxCell id="2GG4-1aaM5nx4AEca9Iq-71" style="edgeStyle=orthogonalEdgeStyle;curved=1;rounded=0;orthogonalLoop=1;jettySize=auto;html=1;exitX=0;exitY=0.75;exitDx=0;exitDy=0;entryX=0.5;entryY=1;entryDx=0;entryDy=0;fontSize=14;" edge="1" parent="1" source="2GG4-1aaM5nx4AEca9Iq-72" target="2GG4-1aaM5nx4AEca9Iq-74">
          <mxGeometry relative="1" as="geometry" />
        </mxCell>
        <mxCell id="2GG4-1aaM5nx4AEca9Iq-72" value="大理" style="rounded=1;whiteSpace=wrap;html=1;fillColor=#fff2cc;fontSize=14;strokeColor=#d6b656;" vertex="1" parent="1">
          <mxGeometry x="920" y="680" width="80" height="40" as="geometry" />
        </mxCell>
        <mxCell id="2GG4-1aaM5nx4AEca9Iq-73" style="edgeStyle=orthogonalEdgeStyle;curved=1;rounded=0;orthogonalLoop=1;jettySize=auto;html=1;fontSize=14;exitX=1;exitY=0.5;exitDx=0;exitDy=0;" edge="1" parent="1" source="2GG4-1aaM5nx4AEca9Iq-74" target="2GG4-1aaM5nx4AEca9Iq-77">
          <mxGeometry relative="1" as="geometry" />
        </mxCell>
        <mxCell id="2GG4-1aaM5nx4AEca9Iq-74" value="北京" style="rounded=1;whiteSpace=wrap;html=1;fillColor=#fff2cc;fontSize=14;strokeColor=#d6b656;" vertex="1" parent="1">
          <mxGeometry x="640" y="120" width="80" height="40" as="geometry" />
        </mxCell>
        <mxCell id="2GG4-1aaM5nx4AEca9Iq-75" style="edgeStyle=orthogonalEdgeStyle;curved=1;rounded=0;orthogonalLoop=1;jettySize=auto;html=1;exitX=1;exitY=0.25;exitDx=0;exitDy=0;entryX=0;entryY=0.25;entryDx=0;entryDy=0;fontSize=14;" edge="1" parent="1" source="2GG4-1aaM5nx4AEca9Iq-77" target="2GG4-1aaM5nx4AEca9Iq-61">
          <mxGeometry relative="1" as="geometry" />
        </mxCell>
        <mxCell id="2GG4-1aaM5nx4AEca9Iq-76" value="3.5 小时" style="edgeLabel;html=1;align=center;verticalAlign=middle;resizable=0;points=[];fontSize=15;fontColor=#000000;" vertex="1" connectable="0" parent="2GG4-1aaM5nx4AEca9Iq-75">
          <mxGeometry x="0.06" y="1" relative="1" as="geometry">
            <mxPoint x="-3" y="-19" as="offset" />
          </mxGeometry>
        </mxCell>
        <mxCell id="2GG4-1aaM5nx4AEca9Iq-77" value="大理" style="rounded=1;whiteSpace=wrap;html=1;fillColor=#fff2cc;fontSize=14;strokeColor=#d6b656;" vertex="1" parent="1">
          <mxGeometry x="700" y="200" width="80" height="40" as="geometry" />
        </mxCell>
        <mxCell id="2GG4-1aaM5nx4AEca9Iq-78" value="泸沽湖匠庐·悠蓝" style="text;html=1;align=left;verticalAlign=middle;resizable=0;points=[];autosize=1;fontSize=15;" vertex="1" parent="1">
          <mxGeometry x="920" y="130" width="120" height="20" as="geometry" />
        </mxCell>
        <mxCell id="2GG4-1aaM5nx4AEca9Iq-79" value="丽江金茂凯悦臻选酒店" style="text;html=1;align=left;verticalAlign=middle;resizable=0;points=[];autosize=1;fontSize=15;" vertex="1" parent="1">
          <mxGeometry x="920" y="370" width="170" height="20" as="geometry" />
        </mxCell>
        <mxCell id="2GG4-1aaM5nx4AEca9Iq-80" value="大理实力希尔顿酒店" style="text;html=1;align=left;verticalAlign=middle;resizable=0;points=[];autosize=1;fontSize=15;" vertex="1" parent="1">
          <mxGeometry x="920" y="610" width="150" height="20" as="geometry" />
        </mxCell>
        <mxCell id="2GG4-1aaM5nx4AEca9Iq-81" value="20日首都机场T2&lt;br&gt;国航：CA1441&lt;br&gt;起飞：06:20&lt;br&gt;到达：10:20" style="text;html=1;align=left;verticalAlign=middle;resizable=0;points=[];autosize=1;fontSize=15;spacingTop=0;labelBorderColor=none;" vertex="1" parent="1">
          <mxGeometry x="740" y="60" width="120" height="80" as="geometry" />
        </mxCell>
        <mxCell id="2GG4-1aaM5nx4AEca9Iq-82" value="29日首都机场T2&lt;br&gt;国航：CA9614&lt;br&gt;起飞：12:10&lt;br&gt;到达：16:00" style="text;html=1;align=left;verticalAlign=middle;resizable=0;points=[];autosize=1;fontSize=15;fontColor=#000000;spacingTop=0;" vertex="1" parent="1">
          <mxGeometry x="710" y="385" width="120" height="80" as="geometry" />
        </mxCell>
        <mxCell id="2GG4-1aaM5nx4AEca9Iq-83" value="香格里拉" style="rounded=1;whiteSpace=wrap;html=1;fillColor=#fff2cc;fontSize=14;strokeColor=#d6b656;dashed=1;" vertex="1" parent="1">
          <mxGeometry x="1080" y="500" width="80" height="40" as="geometry" />
        </mxCell>
        <mxCell id="2GG4-1aaM5nx4AEca9Iq-87" value="看一眼大理，不进城" style="text;html=1;align=center;verticalAlign=middle;resizable=0;points=[];autosize=1;strokeColor=none;fillColor=none;fontSize=15;" vertex="1" parent="1">
          <mxGeometry x="680" y="240" width="160" height="30" as="geometry" />
        </mxCell>
        <mxCell id="2GG4-1aaM5nx4AEca9Iq-89" value="" style="verticalLabelPosition=bottom;verticalAlign=top;html=1;shape=mxgraph.basic.4_point_star_2;dx=0.8;fillColor=#dae8fc;strokeColor=#6c8ebf;" vertex="1" parent="1">
          <mxGeometry x="630" y="111" width="30" height="30" as="geometry" />
        </mxCell>
      </root>
    </mxGraphModel>
  </diagram>
</mxfile>
